<?xml version="1.0" encoding="utf-8"?>
<!-- Generator: Adobe Illustrator 16.0.0, SVG Export Plug-In . SVG Version: 6.00 Build 0)  -->
<!DOCTYPE svg PUBLIC "-//W3C//DTD SVG 1.1//EN" "http://www.w3.org/Graphics/SVG/1.1/DTD/svg11.dtd">
<svg version="1.1" id="Layer_1" xmlns="http://www.w3.org/2000/svg" xmlns:xlink="http://www.w3.org/1999/xlink" x="0px" y="0px"
	 width="201.02px" height="190px" viewBox="0 0 201.02 190" enable-background="new 0 0 201.02 190" xml:space="preserve">
<g id="W1lRca.tif">
	<g>
		<path display="none" fill="#FFFFFF" d="M21.135,165.98c0-51.66,0-103.32,0-154.98c53.66,0,107.32,0,160.98,0
			c0,51.66,0,103.32,0,154.98C128.455,165.98,74.795,165.98,21.135,165.98z M85.705,67.431
			c-17.314-7.399-33.651-14.38-50.466-21.565c-4.316,13.694-8.53,27.062-12.774,40.526c17.783,4.045,34.53,7.855,51.886,11.801
			c-12.664,13.858-24.747,27.082-37.159,40.664c11.829,8.565,23.458,16.984,35.462,25.677c9.729-15.82,19.176-31.183,28.904-47.002
			c9.135,15.899,17.993,31.317,27.021,47.03c12.311-8.85,23.964-17.226,35.776-25.718c-12.265-13.727-24.137-27.014-36.345-40.678
			c17.789-3.981,34.816-7.793,52.637-11.782c-4.162-13.6-8.229-26.883-12.402-40.523c-16.942,7.115-33.334,13.999-50.488,21.204
			c2.157-18.513,4.234-36.335,6.345-54.454c-14.871,0-29.265,0-44.275,0C81.771,30.751,83.674,48.502,85.705,67.431z"/>
		<path fill="#FFFFFF" d="M85.773,76.163c-2.03-18.929-3.935-36.679-5.881-54.819c15.012,0,29.405,0,44.276,0
			c-2.11,18.119-4.188,35.94-6.345,54.454c17.153-7.205,33.546-14.088,50.487-21.204c4.175,13.641,8.241,26.923,12.403,40.523
			c-17.82,3.988-34.848,7.801-52.637,11.781c12.208,13.664,24.08,26.951,36.345,40.679c-11.813,8.491-23.467,16.868-35.777,25.718
			c-9.026-15.713-17.886-31.132-27.021-47.031c-9.729,15.82-19.176,31.182-28.904,47.002c-12.004-8.69-23.633-17.109-35.462-25.676
			c12.412-13.583,24.495-26.806,37.159-40.664c-17.355-3.947-34.104-7.757-51.886-11.803c4.243-13.463,8.458-26.831,12.773-40.525
			C52.122,61.783,68.459,68.764,85.773,76.163z"/>
	</g>
</g>
</svg>
